<svg xmlns="http://www.w3.org/2000/svg" version="1.1" xmlns:xlink="http://www.w3.org/1999/xlink" xmlns:svgjs="http://svgjs.dev/svgjs" width="1500" height="1500" viewBox="0 0 1500 1500"><rect width="1500" height="1500" fill="#2e024e"></rect><g transform="matrix(0.6666666666666666,0,0,0.6666666666666666,249.39393939393938,435.99032258064517)"><svg viewBox="0 0 396 248" data-background-color="#2e024e" preserveAspectRatio="xMidYMid meet" height="939" width="1500" xmlns="http://www.w3.org/2000/svg" xmlns:xlink="http://www.w3.org/1999/xlink"><g id="tight-bounds" transform="matrix(1,0,0,1,0.2400000000000091,0.4000000000000057)"><svg viewBox="0 0 395.52 247.2" height="247.2" width="395.52"><g><svg></svg></g><g><svg viewBox="0 0 395.52 247.2" height="247.2" width="395.52"><g transform="matrix(1,0,0,1,75.54432,102.99393149895072)"><svg viewBox="0 0 244.43135999999998 41.21213700209856" height="41.21213700209856" width="244.43135999999998"><g><svg viewBox="0 0 244.43135999999998 41.21213700209856" height="41.21213700209856" width="244.43135999999998"><g><svg viewBox="0 0 244.43135999999998 41.21213700209856" height="41.21213700209856" width="244.43135999999998"><g><svg viewBox="0 0 244.43135999999998 41.21213700209856" height="41.21213700209856" width="244.43135999999998"><g id="textblocktransform"><svg viewBox="0 0 244.43135999999998 41.21213700209856" height="41.21213700209856" width="244.43135999999998" id="textblock"><g><svg viewBox="0 0 244.43135999999998 41.21213700209856" height="41.21213700209856" width="244.43135999999998"><g transform="matrix(1,0,0,1,0,0)"><svg width="244.43135999999998" viewBox="1.2 -37.5 282.62107028961185 47.660000000000004" height="41.21213700209856" data-palette-color="#d579ff"><g transform="matrix(1,0,0,1,0,0)"><g><svg width="10.81404685974121" viewBox="1.19 -36.36 47.050000000000004 36.36" height="8.357421875" data-palette-color="#d579ff" id="scriptelement" x="273.0070234298706" y="-8.357421875"><path d="M18.55-28.05L9.43 0 1.19 0 13.74-36.36 23.65-36.36 36.19 0 27.95 0 18.84-28.05 18.55-28.05ZM8.91-8.29L8.91-14.29 28.37-14.29 28.37-8.29 8.91-8.29ZM40.55-36.36L48.24-36.36 48.24 0 40.55 0 40.55-36.36Z" opacity="1" transform="matrix(1,0,0,1,0,0)" fill="#d579ff" class="undefined-123" data-fill-palette-color="primary" id="tk-123"></path></svg></g></g><path d="M28.69-35.55L28.69-31.69 17.26-31.69 17.26 0 12.6 0 12.6-31.69 1.2-31.69 1.2-35.55 28.69-35.55ZM44.19-26.56L44.19-22.36Q43.16-22.53 41.97-22.53L41.97-22.53Q37.52-22.53 35.94-18.75L35.94-18.75 35.94 0 31.42 0 31.42-26.42 35.81-26.42 35.89-23.36Q38.11-26.9 42.19-26.9L42.19-26.9Q43.5-26.9 44.19-26.56L44.19-26.56ZM53.24-26.42L53.24 0 48.73 0 48.73-26.42 53.24-26.42ZM48.36-33.42L48.36-33.42Q48.36-34.52 49.03-35.28 49.7-36.04 51.02-36.04 52.34-36.04 53.02-35.28 53.71-34.52 53.71-33.42 53.71-32.32 53.02-31.59 52.34-30.86 51.02-30.86 49.7-30.86 49.03-31.59 48.36-32.32 48.36-33.42ZM82.78-13.33L82.78-12.92Q82.78-6.88 80.02-3.2 77.26 0.49 72.55 0.49L72.55 0.49Q67.74 0.49 64.98-2.56L64.98-2.56 64.98 10.16 60.47 10.16 60.47-26.42 64.59-26.42 64.81-23.49Q67.57-26.9 72.48-26.9L72.48-26.9Q77.24-26.9 80.01-23.32 82.78-19.73 82.78-13.33L82.78-13.33ZM78.26-13.43L78.26-13.43Q78.26-17.9 76.36-20.48 74.46-23.07 71.14-23.07L71.14-23.07Q67.03-23.07 64.98-19.43L64.98-19.43 64.98-6.81Q67.01-3.2 71.18-3.2L71.18-3.2Q74.43-3.2 76.35-5.77 78.26-8.35 78.26-13.43ZM97.91-16.94L97.91-13.26 86-13.26 86-16.94 97.91-16.94ZM116.08-13.92L107.7-13.92 107.7 0 103.01 0 103.01-35.55 116.13-35.55Q121.96-35.55 125.27-32.57 128.58-29.59 128.58-24.68L128.58-24.68Q128.58-19.51 125.34-16.71 122.11-13.92 116.08-13.92L116.08-13.92ZM107.7-31.69L107.7-17.75 116.13-17.75Q119.88-17.75 121.89-19.52 123.89-21.29 123.89-24.63L123.89-24.63Q123.89-27.81 121.89-29.71 119.88-31.62 116.39-31.69L116.39-31.69 107.7-31.69ZM138.75-37.5L138.75 0 134.24 0 134.24-37.5 138.75-37.5ZM167.02 0L162.29 0Q161.9-0.78 161.65-2.78L161.65-2.78Q158.5 0.49 154.13 0.49L154.13 0.49Q150.23 0.49 147.72-1.72 145.22-3.93 145.22-7.32L145.22-7.32Q145.22-11.45 148.36-13.73 151.5-16.02 157.18-16.02L157.18-16.02 161.58-16.02 161.58-18.09Q161.58-20.46 160.16-21.86 158.75-23.27 155.99-23.27L155.99-23.27Q153.57-23.27 151.94-22.05 150.3-20.83 150.3-19.09L150.3-19.09 145.76-19.09Q145.76-21.07 147.16-22.91 148.57-24.76 150.97-25.83 153.38-26.9 156.26-26.9L156.26-26.9Q160.82-26.9 163.41-24.62 166-22.34 166.1-18.33L166.1-18.33 166.1-6.18Q166.1-2.54 167.02-0.39L167.02-0.39 167.02 0ZM154.79-3.44L154.79-3.44Q156.92-3.44 158.82-4.54 160.72-5.64 161.58-7.4L161.58-7.4 161.58-12.82 158.04-12.82Q149.74-12.82 149.74-7.96L149.74-7.96Q149.74-5.83 151.15-4.64 152.57-3.44 154.79-3.44ZM173.17-26.42L177.45-26.42 177.59-23.1Q180.62-26.9 185.5-26.9L185.5-26.9Q193.88-26.9 193.95-17.46L193.95-17.46 193.95 0 189.43 0 189.43-17.48Q189.41-20.34 188.13-21.7 186.85-23.07 184.14-23.07L184.14-23.07Q181.94-23.07 180.28-21.9 178.62-20.73 177.69-18.82L177.69-18.82 177.69 0 173.17 0 173.17-26.42ZM200.76-26.42L205.03-26.42 205.18-23.1Q208.21-26.9 213.09-26.9L213.09-26.9Q221.46-26.9 221.54-17.46L221.54-17.46 221.54 0 217.02 0 217.02-17.48Q216.99-20.34 215.71-21.7 214.43-23.07 211.72-23.07L211.72-23.07Q209.52-23.07 207.86-21.9 206.2-20.73 205.28-18.82L205.28-18.82 205.28 0 200.76 0 200.76-26.42ZM239.31 0.49L239.31 0.49Q233.93 0.49 230.57-3.04 227.2-6.57 227.2-12.48L227.2-12.48 227.2-13.31Q227.2-17.24 228.7-20.32 230.2-23.41 232.9-25.16 235.6-26.9 238.74-26.9L238.74-26.9Q243.9-26.9 246.75-23.51 249.61-20.12 249.61-13.79L249.61-13.79 249.61-11.91 231.71-11.91Q231.81-8.01 234-5.6 236.18-3.2 239.55-3.2L239.55-3.2Q241.94-3.2 243.6-4.17 245.26-5.15 246.51-6.76L246.51-6.76 249.27-4.61Q245.95 0.49 239.31 0.49ZM238.74-23.19L238.74-23.19Q236.01-23.19 234.15-21.2 232.3-19.21 231.86-15.63L231.86-15.63 245.09-15.63 245.09-15.97Q244.9-19.41 243.24-21.3 241.58-23.19 238.74-23.19ZM267.6-26.56L267.6-22.36Q266.57-22.53 265.38-22.53L265.38-22.53Q260.93-22.53 259.35-18.75L259.35-18.75 259.35 0 254.83 0 254.83-26.42 259.23-26.42 259.3-23.36Q261.52-26.9 265.6-26.9L265.6-26.9Q266.92-26.9 267.6-26.56L267.6-26.56Z" opacity="1" transform="matrix(1,0,0,1,0,0)" fill="#d579ff" class="wordmark-text-0" data-fill-palette-color="primary" id="text-0"></path></svg></g></svg></g></svg></g></svg></g></svg></g></svg></g></svg></g><path d="M184.501 96.994L184.501 34.883 7.066 34.883 7.066 212.317 184.501 212.317 184.501 150.206 180.784 150.206 180.784 208.601 10.783 208.601 10.783 38.599 180.784 38.599 180.784 96.994Z" fill="#d579ff" stroke="transparent" data-fill-palette-color="tertiary"></path></svg></g><defs></defs></svg><rect width="395.52" height="247.2" fill="none" stroke="none" visibility="hidden"></rect></g></svg></g></svg>